<svg xmlns="http://www.w3.org/2000/svg" version="1.1" xmlns:xlink="http://www.w3.org/1999/xlink" xmlns:svgjs="http://svgjs.dev/svgjs" width="1500" height="1500" viewBox="0 0 1500 1500"><g transform="matrix(1,0,0,1,-1.7492647058824105,-1.7492647058824105)"><svg viewBox="0 0 340 340" data-background-color="#ffffff" preserveAspectRatio="xMidYMid meet" height="1500" width="1500" xmlns="http://www.w3.org/2000/svg" xmlns:xlink="http://www.w3.org/1999/xlink"><g id="tight-bounds" transform="matrix(1,0,0,1,0.3965000000000316,0.3965000000000032)"><svg viewBox="0 0 339.20687197089836 339.20687197089836" height="339.20687197089836" width="339.20687197089836"><g><svg></svg></g><g><svg viewBox="0 0 339.20687197089836 339.20687197089836" height="339.20687197089836" width="339.20687197089836"><g><path d="M0 169.603c0-93.669 75.934-169.603 169.603-169.603 93.669 0 169.603 75.934 169.604 169.603 0 93.669-75.934 169.603-169.604 169.604-93.669 0-169.603-75.934-169.603-169.604zM169.603 321.932c84.129 0 152.328-68.2 152.329-152.329 0-84.129-68.2-152.328-152.329-152.328-84.129 0-152.328 68.2-152.328 152.328 0 84.129 68.2 152.328 152.328 152.329z" data-fill-palette-color="tertiary" fill="#ca3433" stroke="transparent"></path><ellipse rx="162.8192985460312" ry="162.8192985460312" cx="169.60343598544918" cy="169.60343598544918" fill="#ca3433" stroke="transparent" stroke-width="0" fill-opacity="1" data-fill-palette-color="tertiary"></ellipse></g><g transform="matrix(1,0,0,1,64.31280665816108,73.82421537187062)"><svg viewBox="0 0 210.5812586545762 191.55844122715712" height="191.55844122715712" width="210.5812586545762"><g><svg viewBox="0 0 210.5812586545762 191.55844122715712" height="191.55844122715712" width="210.5812586545762"><g><svg viewBox="0 0 210.5812586545762 191.55844122715712" height="191.55844122715712" width="210.5812586545762"><g><svg viewBox="0 0 210.5812586545762 191.55844122715712" height="191.55844122715712" width="210.5812586545762"><g id="textblocktransform"><svg viewBox="0 0 210.5812586545762 191.55844122715712" height="191.55844122715712" width="210.5812586545762" id="textblock"><g><svg viewBox="0 0 210.5812586545762 191.55844122715712" height="191.55844122715712" width="210.5812586545762"><g transform="matrix(1,0,0,1,0,0)"><svg width="210.5812586545762" viewBox="2.44 -35.16 38.650000000000006 35.16" height="191.55844122715712" data-palette-color="#ffffff"><path d="M2.44 0L2.44 0Q2.59-0.61 2.7-1.48 2.81-2.34 2.81-3.27L2.81-3.27Q2.81-4.13 2.69-4.94 2.56-5.76 2.44-6.35L2.44-6.35Q3.54-6.35 4.37-6.52 5.2-6.69 5.76-7.09 6.32-7.5 6.6-8.19 6.88-8.89 6.88-9.94L6.88-9.94Q6.88-11.99 6.77-13.45 6.67-14.92 6.46-15.87 6.25-16.82 5.93-17.32 5.62-17.82 5.2-17.94L5.2-17.94Q5.64-18.09 5.96-18.41 6.27-18.73 6.48-19.49 6.69-20.26 6.79-21.62 6.88-22.97 6.88-25.22L6.88-25.22Q6.88-26.27 6.6-26.97 6.32-27.66 5.76-28.06 5.2-28.47 4.37-28.64 3.54-28.81 2.44-28.81L2.44-28.81Q2.56-29.39 2.69-30.21 2.81-31.03 2.81-31.88L2.81-31.88Q2.81-32.81 2.7-33.68 2.59-34.55 2.44-35.16L2.44-35.16Q2.76-35.03 3.69-34.91 4.61-34.79 5.87-34.7 7.13-34.62 8.59-34.55 10.06-34.47 11.47-34.41 12.89-34.35 14.12-34.33 15.36-34.3 16.16-34.3L16.16-34.3Q18.48-34.3 20.86-34.34 23.24-34.38 25.31-34.47 27.37-34.57 28.91-34.74 30.44-34.91 31.08-35.16L31.08-35.16Q31.1-34.67 31.43-34.12 31.76-33.57 32.29-33.02 32.81-32.47 33.47-31.96 34.13-31.45 34.8-31.05 35.47-30.66 36.11-30.42 36.74-30.18 37.23-30.15L37.23-30.15Q37.06-29.81 36.93-29.15 36.79-28.49 36.69-27.69 36.6-26.88 36.55-25.99 36.5-25.1 36.5-24.29L36.5-24.29Q36.5-23.36 36.54-22.47 36.57-21.58 36.65-20.8 36.72-20.02 36.87-19.37 37.01-18.73 37.23-18.31L37.23-18.31Q36.38-18.16 35.45-17.85 34.52-17.53 33.62-17.08 32.71-16.63 31.91-16.06 31.1-15.5 30.52-14.87L30.52-14.87Q30.88-14.36 31.38-13.92 31.88-13.48 32.42-13.17 32.96-12.87 33.52-12.7 34.08-12.52 34.57-12.52L34.57-12.52Q34.57-11.06 35.02-9.91 35.47-8.76 36.3-7.97 37.13-7.18 38.33-6.76 39.53-6.35 41.04-6.35L41.04-6.35Q40.82-5.76 40.75-4.94 40.67-4.13 40.67-3.27L40.67-3.27Q40.67-2.34 40.77-1.48 40.87-0.61 41.09 0L41.09 0Q40.84-0.1 40.14-0.21 39.43-0.32 38.51-0.4 37.6-0.49 36.62-0.55 35.64-0.61 34.86-0.61L34.86-0.61Q33.94-0.61 32.81-0.59 31.69-0.56 30.62-0.5 29.54-0.44 28.65-0.32 27.76-0.2 27.29 0L27.29 0Q27.34-0.49 27.37-0.96 27.39-1.44 27.39-1.9L27.39-1.9Q27.39-2.91 27.25-3.82 27.1-4.74 26.76-5.51 26.42-6.27 25.88-6.85 25.34-7.42 24.56-7.74L24.56-7.74Q24.78-8.15 24.95-8.86 25.12-9.57 25.12-10.84L25.12-10.84Q25.12-11.52 24.9-12.13 24.68-12.74 24.13-13.18 23.58-13.62 22.68-13.88 21.78-14.14 20.41-14.14L20.41-14.14Q19.82-14.14 18.99-14.09 18.16-14.04 17.24-13.92L17.24-13.92Q16.97-13.26 16.82-12.34 16.67-11.43 16.67-9.94L16.67-9.94Q16.67-8.89 16.91-8.19 17.14-7.5 17.68-7.09 18.21-6.69 19.06-6.52 19.9-6.35 21.12-6.35L21.12-6.35Q21-5.76 20.87-4.94 20.75-4.13 20.75-3.27L20.75-3.27Q20.75-2.34 20.86-1.48 20.97-0.61 21.12 0L21.12 0Q20.41-0.15 19.34-0.26 18.26-0.37 16.99-0.45 15.72-0.54 14.38-0.57 13.04-0.61 11.79-0.61L11.79-0.61Q10.55-0.61 9.19-0.57 7.84-0.54 6.57-0.45 5.3-0.37 4.21-0.26 3.13-0.15 2.44 0ZM16.72-19.48L16.72-19.48Q17.75-19.19 18.88-19.06 20.02-18.92 21.36-18.92L21.36-18.92Q22.68-18.92 23.72-19.32 24.76-19.73 25.46-20.43 26.17-21.14 26.54-22.11 26.9-23.07 26.9-24.17L26.9-24.17Q26.9-25.2 26.62-26.17 26.34-27.15 25.72-27.89 25.1-28.64 24.08-29.09 23.07-29.54 21.61-29.54L21.61-29.54Q20.34-29.54 19.03-29.37 17.72-29.2 16.7-28.78L16.7-28.78Q16.58-28 16.53-27.06 16.48-26.12 16.48-25.1L16.48-25.1Q16.48-23.58 16.55-22.11 16.63-20.63 16.72-19.48Z" opacity="1" transform="matrix(1,0,0,1,0,0)" fill="#ffffff" class="wordmark-text-0" data-fill-palette-color="quaternary" id="text-0"></path></svg></g></svg></g></svg></g></svg></g><g></g></svg></g></svg></g></svg></g></svg></g><defs></defs></svg><rect width="339.20687197089836" height="339.20687197089836" fill="none" stroke="none" visibility="hidden"></rect></g></svg></g></svg>